<?xml version="1.0" encoding="utf-8"?>
<!-- Generator: Adobe Illustrator 25.2.3, SVG Export Plug-In . SVG Version: 6.00 Build 0)  -->
<svg version="1.1" xmlns="http://www.w3.org/2000/svg" xmlns:xlink="http://www.w3.org/1999/xlink" x="0px" y="0px"
	 viewBox="0 0 708 242.1" style="enable-background:new 0 0 708 242.1;" xml:space="preserve">
<style type="text/css">
	.st0{display:none;}
	.st1{display:inline;fill:#878787;}
	.st2{filter:url(#filter0_d);}
	.st3{fill:#FFFFFF;}
	.st4{fill:url(#SVGID_1_);}
	.st5{fill:url(#SVGID_2_);}
</style>
<filter  color-interpolation-filters="sRGB" filterUnits="userSpaceOnUse" height="222" id="filter0_d" width="724" x="-8" y="0">
	<feFlood  flood-opacity="0" result="BackgroundImageFix"></feFlood>
	<feColorMatrix  in="SourceAlpha" type="matrix" values="0 0 0 0 0 0 0 0 0 0 0 0 0 0 0 0 0 0 127 0"></feColorMatrix>
	<feOffset  dy="8"></feOffset>
	<feGaussianBlur  stdDeviation="4"></feGaussianBlur>
	<feColorMatrix  type="matrix" values="0 0 0 0 0 0 0 0 0 0 0 0 0 0 0 0 0 0 0.5 0"></feColorMatrix>
	<feBlend  in2="BackgroundImageFix" mode="multiply" result="effect1_dropShadow"></feBlend>
	<feBlend  in="SourceGraphic" in2="effect1_dropShadow" mode="normal" result="shape"></feBlend>
</filter>
<g id="Layer_2" class="st0">
	<rect class="st1" width="708" height="242.1"/>
</g>
<g id="Layer_1">
	<g class="st2">
		<path class="st3" d="M74.2,32.6v41.1H49.5V32.6h-11v135.7h11V84.8h24.6v83.5H85V32.6H74.2z"/>
		<path class="st3" d="M135.8,144.6v0.3c0,6.9-5.4,12.3-12.3,12.3c-6.4,0-11.8-5.1-12.1-11.8V84.8h23.9V74h-23.9V55.5
			c0.3-6.4,5.6-11.8,12.1-11.8c6.9,0,12.3,5.7,12.3,12.3v0.8l11-0.8c0-12.6-10.5-23.1-23.4-23.1c-4.4,0-8.7,1.3-12.1,3.6v-3.6h-11
			v135.4h10.8V168h0.3v-3.4c3.3,2.1,7.7,3.4,12.1,3.4c12.8,0,23.4-10.3,23.4-23.1l-0.3-0.3H135.8z"/>
		<path class="st3" d="M207.9,61.6V56c0-12.6-10.2-23.1-23.1-23.1c-4.6,0-8.7,1.5-12.3,3.6v-3.6h-10.8v134.9h10.8v-83h12.3
			c6.7,0,12.3,5.4,12.3,12.3v71h10.8v-71c0-7.2-3.3-13.6-8.2-17.7C204.5,75,207.9,68.6,207.9,61.6z M197.1,61.6
			c0,6.7-5.6,12.3-12.3,12.3h-12.3V56c0-6.7,5.6-12.3,12.3-12.3c6.7,0,12.3,5.7,12.3,12.3V61.6z"/>
		<path class="st3" d="M272,61.9v-5.7c0-12.8-10.5-23.1-23.4-23.1c-4.4,0-8.7,1.3-12.1,3.4v-3.4h-11v135.4h10.8v-3.6
			c2.5,1.4,5.3,2.6,8.2,3.2c1.3,0.3,2.7,0.4,4.1,0.4c1.5,0,3-0.1,4.4-0.4c10.8-2.1,19-11.6,19-23V97.4c0-7.2-3.3-13.6-8.5-17.7
			C268.7,75.3,272,68.8,272,61.9z M261,145.2c0,6.9-5.4,12.3-12.3,12.3c-6.7,0-12.3-5.4-12.3-12.3V85h12.3c6.9,0,12.3,5.7,12.3,12.3
			V145.2z M261,61.9c0,6.7-5.4,12.3-12.3,12.3h-12.3V63.7h0.2v-7.5c0-6.9,5.4-12.3,12.1-12.3c6.9,0,12.3,5.7,12.3,12.3V61.9z"/>
		<path class="st3" d="M306.9,32.9c-12.8,0-23.1,10.5-23.1,23.1v89.1c0,12,8.9,21.7,20.4,23c0.9,0.1,1.8,0.2,2.7,0.2
			c0.9,0,1.8-0.1,2.7-0.2c11.6-1.3,20.6-11,20.6-23V56C330.3,43.4,319.7,32.9,306.9,32.9z M319.2,145.2c0,6.7-5.4,12.3-12.3,12.3
			c-6.7,0-12.3-5.7-12.3-12.3V56c0-6.7,5.6-12.1,12.3-12.1c6.9,0,12.3,5.4,12.3,12.1V145.2z"/>
		<path class="st3" d="M392.4,61.6V56c0-12.6-10.3-23.1-23.1-23.1c-4.6,0-8.7,1.5-12.3,3.6v-3.6h-10.8v134.9H357v-83h12.3
			c6.7,0,12.3,5.4,12.3,12.3v71h10.8v-71c0-7.2-3.3-13.6-8.2-17.7C389,75,392.4,68.6,392.4,61.6z M381.6,61.6
			c0,6.7-5.6,12.3-12.3,12.3H357V56c0-6.7,5.6-12.3,12.3-12.3c6.7,0,12.3,5.7,12.3,12.3V61.6z"/>
		<path class="st3" d="M444.5,76v3.6c-3.6-2.3-7.4-3.6-12.1-3.6c-12.3,0-22.3,10-22.3,22.6v46.2c0,12.3,10,22.4,22.3,22.4
			c4.4,0,8.5-1.3,12.1-3.4v3.4H455V76H444.5z M444.5,144.9c0,6.4-5.4,11.8-12.1,11.8c-6.4,0-11.8-5.4-11.8-11.8V98.7
			c0-6.7,5.4-12.1,11.8-12.1c6.7,0,12.1,5.4,12.1,12.1V144.9z"/>
		<path class="st3" d="M466.5,32.6v11h17.7v124.6h11V43.7H513v-11H466.5z"/>
		<path class="st3" d="M573,32.9h-10.8v112c0,6.9-5.4,12.3-12.3,12.3c-6.7,0-12.3-5.4-12.3-12.3v-112h-10.8v112
			c0,11.9,8.9,21.9,20.4,23.2c0.9,0.1,1.8,0.2,2.7,0.2c0.9,0,1.8,0,2.6-0.2c3.5-0.4,6.8-1.6,9.7-3.4v3.6h11v-0.2L573,32.9z"/>
		<path class="st3" d="M646.4,32.6c-7.2,0-13.6,3.3-17.7,8.2c-4.4-4.9-10.8-8.2-18-8.2c-4.6,0-8.7,1.5-12.6,3.9v-3.9h-10.5V168h11
			V55.7c0-6.7,5.4-12.1,12.1-12.1c6.9,0,12.3,5.4,12.3,12.1V168h11V55.7c0-6.7,5.4-12.1,12.3-12.1c6.7,0,12.3,5.4,12.3,12.1v112.4
			h10.8V55.7C669.5,43.1,659,32.6,646.4,32.6z"/>
		<path d="M49.5,168.1h-11v0.2h11V168.1z"/>
		<path d="M85,168.1H74.2v0.2H85V168.1z"/>
		<path d="M111.1,168.1h-10.8v0.2h10.8V168.1z"/>
		<path d="M236.4,168.1h-10.8v0.4h10.8V168.1z"/>
		<path d="M253,168.1c-1.4,0.3-2.9,0.4-4.4,0.4c-1.4,0-2.7-0.1-4.1-0.4H253z"/>
		<path d="M309.6,168.1c-0.9,0.1-1.8,0.2-2.7,0.2c-0.9,0-1.8-0.1-2.7-0.2H309.6z"/>
		<path d="M495.3,168.1h-11v0.2h11V168.1z"/>
		<path d="M552.6,168.1c-0.9,0.1-1.7,0.2-2.6,0.2c-0.9,0-1.8-0.1-2.7-0.2H552.6z"/>
		<path d="M573.3,168.1h-11v0.2h11V168.1z"/>
		
			<linearGradient id="SVGID_1_" gradientUnits="userSpaceOnUse" x1="440.044" y1="250.5826" x2="440.044" y2="209.1806" gradientTransform="matrix(1 0 0 -1 0 278.1102)">
			<stop  offset="0" style="stop-color:#6BD903"/>
			<stop  offset="1" style="stop-color:#1F5600"/>
		</linearGradient>
		<path class="st4" d="M432.8,68.9C432.2,54.5,444,42,444.5,27.5c2.2,7.1,3.7,14.7,2.3,22.1S440.6,64,432.8,68.9z"/>
		
			<linearGradient id="SVGID_2_" gradientUnits="userSpaceOnUse" x1="425.9454" y1="229.8815" x2="425.9454" y2="207.1169" gradientTransform="matrix(1 0 0 -1 0 278.1102)">
			<stop  offset="0" style="stop-color:#6BD903"/>
			<stop  offset="1" style="stop-color:#1F5600"/>
		</linearGradient>
		<path class="st5" d="M422,67.7c0.3-5.5,0.5-11,0.8-16.6c0.1-1.1,0-2.4-1-2.9c4.2,4,7.1,9.3,8.1,15c0.4,2.2,0.5,4.7-0.9,6.5
			C427.7,71.5,424.4,71.9,422,67.7z"/>
	</g>
	<g class="st2">
		<path class="st3" d="M279.1,217.1c-1,1.4-2.3,2.4-4,3.1c-1.7,0.7-3.7,1-6,1c-2.3,0-4.4-0.5-6.2-1.6c-1.8-1.1-3.2-2.6-4.2-4.6
			c-1-2-1.5-4.3-1.5-7v-2.5c0-4.3,1-7.6,3-10c2-2.4,4.8-3.5,8.4-3.5c3,0,5.4,0.8,7.2,2.3c1.8,1.5,2.9,3.7,3.3,6.4h-3.8
			c-0.7-3.8-2.9-5.6-6.7-5.6c-2.5,0-4.4,0.9-5.7,2.7c-1.3,1.8-1.9,4.3-2,7.7v2.3c0,3.2,0.7,5.7,2.2,7.6c1.5,1.9,3.4,2.8,5.9,2.8
			c1.4,0,2.6-0.2,3.7-0.5c1.1-0.3,1.9-0.8,2.6-1.6v-6.4h-6.6v-3h10.3V217.1z M295.8,209.3h-6.7v11.5h-3.8v-28.4h9.4
			c3.2,0,5.7,0.7,7.4,2.2c1.7,1.5,2.6,3.6,2.6,6.4c0,1.8-0.5,3.3-1.4,4.6c-1,1.3-2.3,2.3-4,2.9l6.7,12.1v0.2h-4L295.8,209.3z
			 M289.1,206.3h5.8c1.9,0,3.3-0.5,4.4-1.4c1.1-1,1.7-2.3,1.7-3.9c0-1.8-0.5-3.1-1.6-4c-1-0.9-2.6-1.4-4.5-1.4h-5.7V206.3z
			 M326.1,207.7h-12.3v10.1h14.3v3.1H310v-28.4h17.9v3.1h-14.1v9.1h12.3V207.7z M348.8,207.7h-12.3v10.1h14.3v3.1h-18.1v-28.4h17.9
			v3.1h-14.1v9.1h12.3V207.7z M377.3,220.8h-3.8l-14.3-21.9v21.9h-3.8v-28.4h3.8l14.4,22v-22h3.7V220.8z M400.1,207.7h-12.3v10.1
			h14.3v3.1H384v-28.4h17.9v3.1h-14.1v9.1h12.3V207.7z M417.2,209.3h-6.7v11.5h-3.8v-28.4h9.4c3.2,0,5.7,0.7,7.4,2.2
			c1.7,1.5,2.6,3.6,2.6,6.4c0,1.8-0.5,3.3-1.4,4.6c-1,1.3-2.3,2.3-4,2.9l6.7,12.1v0.2h-4L417.2,209.3z M410.5,206.3h5.8
			c1.9,0,3.3-0.5,4.4-1.4c1.1-1,1.7-2.3,1.7-3.9c0-1.8-0.5-3.1-1.6-4c-1-0.9-2.6-1.4-4.5-1.4h-5.7V206.3z M439.1,206.7l7.4-14.3h4.3
			l-9.8,17.8v10.6h-3.8v-10.6l-9.8-17.8h4.3L439.1,206.7z"/>
	</g>
</g>
</svg>
